<svg width="200" height="120" viewBox="0 0 200 120" xmlns="http://www.w3.org/2000/svg">
  <!-- Red and white stripes -->
  <rect width="200" height="9.23" fill="#B22234"/>
  <rect y="9.23" width="200" height="9.23" fill="#FFFFFF"/>
  <rect y="18.46" width="200" height="9.23" fill="#B22234"/>
  <rect y="27.69" width="200" height="9.23" fill="#FFFFFF"/>
  <rect y="36.92" width="200" height="9.23" fill="#B22234"/>
  <rect y="46.15" width="200" height="9.23" fill="#FFFFFF"/>
  <rect y="55.38" width="200" height="9.23" fill="#B22234"/>
  <rect y="64.61" width="200" height="9.23" fill="#FFFFFF"/>
  <rect y="73.84" width="200" height="9.23" fill="#B22234"/>
  <rect y="83.07" width="200" height="9.23" fill="#FFFFFF"/>
  <rect y="92.3" width="200" height="9.23" fill="#B22234"/>
  <rect y="101.53" width="200" height="9.23" fill="#FFFFFF"/>
  <rect y="110.76" width="200" height="9.23" fill="#B22234"/>
  
  <!-- Blue field -->
  <rect width="80" height="64.61" fill="#3C3B6E"/>
  
  <!-- Stars (simplified as small circles) -->
  <circle cx="10" cy="8" r="1.5" fill="#FFFFFF"/>
  <circle cx="20" cy="8" r="1.5" fill="#FFFFFF"/>
  <circle cx="30" cy="8" r="1.5" fill="#FFFFFF"/>
  <circle cx="40" cy="8" r="1.5" fill="#FFFFFF"/>
  <circle cx="50" cy="8" r="1.5" fill="#FFFFFF"/>
  <circle cx="60" cy="8" r="1.5" fill="#FFFFFF"/>
  <circle cx="70" cy="8" r="1.5" fill="#FFFFFF"/>
  
  <circle cx="10" cy="16" r="1.5" fill="#FFFFFF"/>
  <circle cx="20" cy="16" r="1.5" fill="#FFFFFF"/>
  <circle cx="30" cy="16" r="1.5" fill="#FFFFFF"/>
  <circle cx="40" cy="16" r="1.5" fill="#FFFFFF"/>
  <circle cx="50" cy="16" r="1.5" fill="#FFFFFF"/>
  <circle cx="60" cy="16" r="1.5" fill="#FFFFFF"/>
  <circle cx="70" cy="16" r="1.5" fill="#FFFFFF"/>
  
  <circle cx="10" cy="24" r="1.5" fill="#FFFFFF"/>
  <circle cx="20" cy="24" r="1.5" fill="#FFFFFF"/>
  <circle cx="30" cy="24" r="1.5" fill="#FFFFFF"/>
  <circle cx="40" cy="24" r="1.5" fill="#FFFFFF"/>
  <circle cx="50" cy="24" r="1.5" fill="#FFFFFF"/>
  <circle cx="60" cy="24" r="1.5" fill="#FFFFFF"/>
  <circle cx="70" cy="24" r="1.5" fill="#FFFFFF"/>
  
  <circle cx="10" cy="32" r="1.5" fill="#FFFFFF"/>
  <circle cx="20" cy="32" r="1.5" fill="#FFFFFF"/>
  <circle cx="30" cy="32" r="1.5" fill="#FFFFFF"/>
  <circle cx="40" cy="32" r="1.5" fill="#FFFFFF"/>
  <circle cx="50" cy="32" r="1.5" fill="#FFFFFF"/>
  <circle cx="60" cy="32" r="1.5" fill="#FFFFFF"/>
  <circle cx="70" cy="32" r="1.5" fill="#FFFFFF"/>
  
  <circle cx="10" cy="40" r="1.5" fill="#FFFFFF"/>
  <circle cx="20" cy="40" r="1.5" fill="#FFFFFF"/>
  <circle cx="30" cy="40" r="1.5" fill="#FFFFFF"/>
  <circle cx="40" cy="40" r="1.5" fill="#FFFFFF"/>
  <circle cx="50" cy="40" r="1.5" fill="#FFFFFF"/>
  <circle cx="60" cy="40" r="1.5" fill="#FFFFFF"/>
  <circle cx="70" cy="40" r="1.5" fill="#FFFFFF"/>
  
  <circle cx="10" cy="48" r="1.5" fill="#FFFFFF"/>
  <circle cx="20" cy="48" r="1.5" fill="#FFFFFF"/>
  <circle cx="30" cy="48" r="1.5" fill="#FFFFFF"/>
  <circle cx="40" cy="48" r="1.5" fill="#FFFFFF"/>
  <circle cx="50" cy="48" r="1.5" fill="#FFFFFF"/>
  <circle cx="60" cy="48" r="1.5" fill="#FFFFFF"/>
  <circle cx="70" cy="48" r="1.5" fill="#FFFFFF"/>
  
  <circle cx="10" cy="56" r="1.5" fill="#FFFFFF"/>
  <circle cx="20" cy="56" r="1.5" fill="#FFFFFF"/>
  <circle cx="30" cy="56" r="1.5" fill="#FFFFFF"/>
  <circle cx="40" cy="56" r="1.5" fill="#FFFFFF"/>
  <circle cx="50" cy="56" r="1.5" fill="#FFFFFF"/>
  <circle cx="60" cy="56" r="1.5" fill="#FFFFFF"/>
  <circle cx="70" cy="56" r="1.5" fill="#FFFFFF"/>
</svg>

